<?xml version="1.0" encoding="iso-8859-1"?>
<!-- Generator: Adobe Illustrator 19.0.0, SVG Export Plug-In . SVG Version: 6.00 Build 0)  -->
<svg version="1.1" id="Layer_1" xmlns="http://www.w3.org/2000/svg" xmlns:xlink="http://www.w3.org/1999/xlink" x="0px" y="0px"
	 viewBox="0 0 512 512" style="enable-background:new 0 0 512 512;" xml:space="preserve">
<g>
	<g>
		<g>
			<path d="M405.333,405.333H384c-11.797,0-21.333,9.557-21.333,21.333S372.203,448,384,448h21.333
				c11.797,0,21.333-9.557,21.333-21.333S417.131,405.333,405.333,405.333z"/>
			<path d="M490.667,384c-11.797,0-21.333,9.557-21.333,21.333v21.333c0,11.776,9.536,21.333,21.333,21.333S512,438.443,512,426.667
				v-21.333C512,393.557,502.464,384,490.667,384z"/>
			<path d="M490.667,277.333c-11.797,0-21.333,9.557-21.333,21.333V320c0,11.776,9.536,21.333,21.333,21.333S512,331.776,512,320
				v-21.333C512,286.891,502.464,277.333,490.667,277.333z"/>
			<path d="M490.667,170.667c-11.797,0-21.333,9.557-21.333,21.333v21.333c0,11.776,9.536,21.333,21.333,21.333
				S512,225.109,512,213.333V192C512,180.224,502.464,170.667,490.667,170.667z"/>
			<path d="M490.667,64h-21.333C457.536,64,448,73.557,448,85.333s9.536,21.333,21.333,21.333c0,11.776,9.536,21.333,21.333,21.333
				S512,118.443,512,106.667V85.333C512,73.557,502.464,64,490.667,64z"/>
			<path d="M362.667,362.667v-85.333V256v-85.333v-21.333v-42.667H384c11.797,0,21.333-9.557,21.333-21.333S395.797,64,384,64
				h-21.333c-3.968,0-7.488,1.387-10.667,3.264C348.821,65.387,345.301,64,341.333,64H170.667c-11.797,0-21.333,9.557-21.333,21.333
				V128v21.333v85.333V256v85.333v21.333v42.667H128c-11.797,0-21.333,9.557-21.333,21.333S116.203,448,128,448h21.333
				c3.968,0,7.488-1.387,10.667-3.264c3.179,1.877,6.699,3.264,10.667,3.264h170.667c11.797,0,21.333-9.557,21.333-21.333V384
				V362.667z"/>
			<path d="M21.333,128c11.797,0,21.333-9.557,21.333-21.333V85.333C42.667,73.557,33.131,64,21.333,64C9.536,64,0,73.557,0,85.333
				v21.333C0,118.443,9.536,128,21.333,128z"/>
			<path d="M21.333,234.667c11.797,0,21.333-9.557,21.333-21.333V192c0-11.776-9.536-21.333-21.333-21.333
				C9.536,170.667,0,180.224,0,192v21.333C0,225.109,9.536,234.667,21.333,234.667z"/>
			<path d="M128,64h-21.333c-11.797,0-21.333,9.557-21.333,21.333s9.536,21.333,21.333,21.333H128
				c11.797,0,21.333-9.557,21.333-21.333S139.797,64,128,64z"/>
			<path d="M42.667,405.333c0-11.776-9.536-21.333-21.333-21.333C9.536,384,0,393.557,0,405.333v21.333
				C0,438.443,9.536,448,21.333,448h21.333C54.464,448,64,438.443,64,426.667S54.464,405.333,42.667,405.333z"/>
			<path d="M21.333,341.333c11.797,0,21.333-9.557,21.333-21.333v-21.333c0-11.776-9.536-21.333-21.333-21.333
				C9.536,277.333,0,286.891,0,298.667V320C0,331.776,9.536,341.333,21.333,341.333z"/>
		</g>
	</g>
</g>
<g>
</g>
<g>
</g>
<g>
</g>
<g>
</g>
<g>
</g>
<g>
</g>
<g>
</g>
<g>
</g>
<g>
</g>
<g>
</g>
<g>
</g>
<g>
</g>
<g>
</g>
<g>
</g>
<g>
</g>
</svg>
