<?xml version="1.0" encoding="iso-8859-1"?>
<!-- Generator: Adobe Illustrator 19.0.0, SVG Export Plug-In . SVG Version: 6.00 Build 0)  -->
<svg version="1.1" id="Capa_1" xmlns="http://www.w3.org/2000/svg" xmlns:xlink="http://www.w3.org/1999/xlink" x="0px" y="0px"
	 viewBox="0 0 487.9 487.9" style="enable-background:new 0 0 487.9 487.9;" xml:space="preserve">
<g>
	<g>
		<path d="M446.4,152.463h-20.8v-22.8c0-11.4-9.3-20.8-20.8-20.8s-20.8,9.3-20.8,20.8v22.8H123.3l184.1-84c6.3,4.2,27,13.2,48.8-4.3
			c8.6-6.9,23.3-30.1,0-54c-14.5-13.5-39.4-13.5-54,0c-6.7,5.9-10.7,13.1-12,21.2L27,151.463c-4.1,2-27,18.9-27,42.6v252.3
			c0,22.8,18.7,41.5,41.5,41.5h404.9c22.8,0,41.5-18.7,41.5-41.5v-252.4C488,171.163,469.3,152.463,446.4,152.463z M447.5,447.263
			h-407v-254.3h406.9v254.3H447.5z"/>
		<path d="M362.3,246.963H125.7c-11.4,0-20.8,9.3-20.8,20.8c0,11.4,9.3,20.8,20.8,20.8h236.7c11.4,0,20.8-9.3,20.8-20.8
			C383.1,256.263,373.8,246.963,362.3,246.963z"/>
		<path d="M362.3,350.763H125.7c-11.4,0-20.8,9.3-20.8,20.8c0,11.4,9.3,20.8,20.8,20.8h236.7c11.4,0,20.8-9.3,20.8-20.8
			C383.1,360.063,373.8,350.763,362.3,350.763z"/>
	</g>
</g>
<g>
</g>
<g>
</g>
<g>
</g>
<g>
</g>
<g>
</g>
<g>
</g>
<g>
</g>
<g>
</g>
<g>
</g>
<g>
</g>
<g>
</g>
<g>
</g>
<g>
</g>
<g>
</g>
<g>
</g>
</svg>
